<svg version="1.1" xmlns="http://www.w3.org/2000/svg" xmlns:xlink="http://www.w3.org/1999/xlink" width="842.000000pt" height="842.000000pt" viewBox="0,0,256,256"><g transform=""><g fill="#6b6868" fill-rule="nonzero" stroke="none" stroke-width="1" stroke-linecap="butt" stroke-linejoin="miter" stroke-miterlimit="10" stroke-dasharray="" stroke-dashoffset="0" font-family="none" font-weight="none" font-size="none" text-anchor="none" style="mix-blend-mode: normal"><g transform="translate(12.58717,17.96472) scale(0.30404,0.30404)"><g transform="translate(0,842) scale(0.1,-0.1)"><path d="M4926,7560c-76,-99 -161,-211 -189,-249c-29,-37 -81,-106 -117,-154c-36,-47 -67,-86 -70,-87c-3,0 -111,117 -239,260c-129,144 -235,259 -236,258c-1,-2 10,-91 26,-198c15,-107 47,-328 69,-490c23,-162 42,-295 43,-296c4,-1 244,-57 277,-64c19,-4 112,-26 205,-48c568,-133 609,-142 621,-129c10,10 92,134 451,685c30,46 53,85 51,87c-1,1 -135,-51 -297,-116c-162,-65 -296,-118 -297,-116c-2,2 -104,550 -139,751c-8,43 -16,80 -18,82c-2,3 -66,-77 -141,-176z"></path><path d="M2985,6495c-531,-50 -801,-234 -919,-625c-52,-174 -73,-353 -83,-711l-6,-227l1549,-6c852,-3 1764,-8 2027,-10l477,-4v129c0,98 -3,129 -13,129c-7,0 -18,25 -26,58c-24,105 -101,322 -147,415c-96,194 -231,354 -384,457c-326,220 -875,342 -1770,395c-292,18 -514,17 -705,0zM3785,6275c815,-56 1298,-170 1581,-370c121,-86 234,-233 304,-394c38,-87 110,-302 110,-327c0,-11 -222,-13 -1247,-9c-687,3 -1492,8 -1790,11l-543,6v73c0,122 29,374 56,485c82,334 265,474 683,525c146,18 592,18 846,0z"></path><path d="M3250,6135c-7,-9 -11,-17 -9,-19c2,-2 51,-27 108,-56c81,-40 106,-49 112,-38c5,7 9,16 9,20c0,7 -192,108 -204,108c-2,0 -9,-7 -16,-15z"></path><path d="M3950,5925c-65,-78 -82,-115 -51,-115c19,0 153,169 147,185c-3,8 -10,15 -15,15c-5,0 -41,-38 -81,-85z"></path><path d="M4551,5982c-9,-16 2,-26 91,-81c78,-49 102,-60 109,-50c14,23 12,26 -66,73c-42,25 -86,53 -100,62c-22,14 -24,14 -34,-4z"></path><path d="M2866,5860c-66,-26 -121,-51 -123,-56c-1,-5 1,-14 5,-21c12,-18 251,76 252,99c0,9 -3,19 -7,21c-5,2 -62,-17 -127,-43z"></path><path d="M3405,5718c-104,-126 -99,-118 -83,-134c13,-13 24,-3 91,77c62,73 75,94 66,105c-6,8 -14,14 -18,13c-3,0 -28,-27 -56,-61z"></path><path d="M2126,4733c-3,-87 -8,-183 -11,-214l-4,-57l127,-6c120,-6 315,-14 1192,-51c201,-8 471,-20 600,-25c129,-5 294,-12 365,-15c72,-3 229,-10 350,-15c121,-5 391,-16 600,-25c209,-8 413,-17 453,-18l72,-4v77c0,42 3,138 7,212l6,136l-64,6c-35,3 -244,12 -464,21c-396,16 -878,36 -1315,55c-124,5 -304,12 -400,15c-96,3 -198,8 -226,11l-51,5l-159,-127c-87,-70 -166,-133 -174,-140c-14,-11 -32,7 -134,136l-119,148l-66,6c-36,3 -142,8 -236,11c-93,3 -209,8 -256,11l-87,6z"></path><path d="M1930,4150c0,-72 4,-130 9,-130c5,0 17,-35 26,-77c61,-284 158,-460 321,-580c240,-177 596,-250 1439,-295c321,-17 1175,-17 1315,0c236,29 423,79 539,144c217,123 340,338 381,665c6,48 15,95 20,104c4,8 8,69 9,136l2,120l-328,7c-180,3 -1041,11 -1913,16c-872,5 -1638,12 -1702,14l-118,5zM4045,4000c627,-6 1270,-10 1428,-10h289l-7,-52c-38,-276 -106,-419 -246,-514c-108,-73 -228,-108 -509,-146c-138,-19 -883,-15 -1280,6c-840,45 -1161,114 -1349,291c-96,91 -163,229 -196,408l-7,36l368,-5c203,-2 882,-9 1509,-14z"></path><path d="M6151,2337c-6,-34 -27,-143 -46,-242c-20,-99 -38,-188 -41,-197c-4,-14 0,-18 24,-18h29l33,173c18,94 36,178 40,185c4,8 22,-12 51,-58c137,-220 204,-321 206,-314c2,8 44,223 87,447l13,67h-27c-26,0 -26,0 -61,-180c-19,-99 -37,-180 -40,-180c-3,0 -59,83 -124,185c-65,102 -121,188 -125,190c-3,2 -12,-24 -19,-58z"></path><path d="M2664,2369c-209,-80 -274,-358 -108,-455c45,-27 58,-29 171,-33c121,-3 122,-3 127,20c10,42 46,227 46,233c0,4 -48,5 -107,4c-103,-3 -108,-4 -111,-25c-3,-22 -1,-23 77,-23h81l-6,-25c-3,-13 -11,-48 -18,-77l-12,-53l-59,-1c-134,-3 -203,33 -225,118c-35,127 93,279 234,279c57,0 86,-10 123,-44c22,-20 23,-20 44,-1l21,19l-38,32c-64,56 -149,67 -240,32z"></path><path d="M4361,2379c-78,-23 -166,-103 -202,-184c-47,-104 -19,-228 64,-283c36,-24 50,-27 121,-27c59,0 91,5 119,19c38,19 38,19 53,-3c11,-14 26,-21 50,-21c19,0 34,2 34,5c0,3 -11,18 -25,33c-31,33 -31,43 -2,70c83,78 99,236 33,325c-45,62 -155,91 -245,66zM4528,2309c69,-43 88,-158 39,-241c-45,-77 -48,-77 -107,7c-29,41 -56,75 -59,75c-3,0 -15,-7 -25,-15c-20,-15 -20,-15 0,-42c12,-16 37,-51 57,-79l37,-52l-40,-16c-155,-62 -289,76 -225,232c18,43 77,107 118,128c62,33 155,34 205,3z"></path><path d="M5133,2382c-18,-3 -24,-13 -33,-60c-55,-280 -61,-300 -103,-339c-66,-63 -154,-68 -201,-12c-33,39 -33,71 -2,225c40,203 39,184 8,184h-27l-33,-178c-38,-202 -35,-229 23,-281c43,-37 70,-45 136,-39c57,6 114,41 161,99c25,31 35,62 64,205c19,93 33,176 32,184c-2,9 -11,14 -25,12z"></path><path d="M1094,2130l-49,-250h116c104,0 120,2 168,26c102,51 135,155 71,224l-31,33l21,22c46,49 42,133 -7,172c-25,21 -39,23 -134,23h-105zM1350,2310c39,-39 16,-100 -46,-126c-36,-15 -144,-19 -144,-6c0,13 20,125 25,140c3,8 27,12 75,12c57,0 74,-4 90,-20zM1335,2106c43,-18 54,-54 32,-102c-22,-44 -64,-65 -152,-71c-107,-8 -106,-10 -89,84c8,43 17,84 19,91c6,17 146,16 190,-2z"></path><path d="M1552,2207c-39,-200 -36,-230 22,-287c64,-61 179,-53 258,18c22,20 48,52 58,72c15,29 80,324 80,362c0,4 -11,8 -25,8c-17,0 -26,-7 -29,-22c-3,-13 -17,-84 -32,-158c-31,-158 -37,-176 -72,-213c-51,-54 -118,-70 -177,-42c-37,18 -55,51 -55,99c0,26 33,216 55,314c5,19 1,22 -22,22h-28z"></path><path d="M2081,2333c-6,-27 -16,-73 -22,-103c-44,-235 -60,-317 -65,-332c-4,-14 1,-18 24,-18c27,0 31,4 36,38c4,20 23,121 43,225l36,187h81c45,0 92,-6 106,-13c52,-26 49,-100 -6,-140c-28,-21 -137,-41 -172,-32c-30,7 -33,14 63,-138c76,-120 82,-127 113,-127h33l-16,28c-9,15 -28,46 -43,69c-15,23 -37,58 -49,77l-22,36l27,6c53,11 80,26 116,63c64,66 60,159 -9,201c-27,17 -50,20 -148,20h-115z"></path><path d="M3061,2328c-6,-29 -28,-141 -49,-248l-38,-195l165,-3c90,-1 165,-1 166,0c1,2 5,15 9,31l6,27h-141h-141l5,23c3,12 11,50 18,85l12,62h108c60,0 109,4 109,9c0,5 3,16 6,25c5,14 -8,16 -106,16c-86,0 -111,3 -107,13c2,6 10,45 17,85l13,72h144h143v25v25h-164h-165z"></path><path d="M3507,2358c-3,-13 -24,-120 -47,-238c-23,-118 -43,-221 -45,-227c-3,-9 6,-13 24,-13h29l43,225l43,225h88c81,0 91,-2 113,-25c29,-28 31,-54 10,-94c-20,-39 -74,-62 -151,-64c-40,-1 -63,-6 -62,-13c2,-6 37,-65 78,-132c71,-115 77,-122 108,-122c17,0 32,2 32,5c0,5 -80,133 -111,177l-19,28l27,5c96,20 163,87 163,165c0,94 -44,120 -203,120c-111,0 -115,-1 -120,-22z"></path><path d="M5271,2333c-6,-27 -27,-131 -46,-233c-20,-102 -38,-193 -41,-202c-5,-17 7,-18 165,-18h171v30v30h-135c-81,0 -135,4 -135,10c0,5 7,43 17,85l16,75h109c59,0 108,4 108,9c0,5 3,16 6,25c5,14 -8,16 -106,16c-101,0 -111,2 -107,18c3,9 11,47 17,84l12,67l142,3c138,3 141,4 144,26l3,22h-164h-165z"></path><path d="M5715,2358c-3,-13 -23,-117 -45,-233c-22,-115 -42,-218 -44,-227c-4,-17 9,-18 165,-18h169v30v30h-136h-136l7,38c3,20 11,58 17,85l10,47h109c60,0 109,4 109,9c0,5 3,16 6,25c5,14 -8,16 -106,16c-111,0 -112,0 -107,23c3,12 11,50 18,84l11,62l142,3c138,3 141,4 144,26l3,22h-165c-164,0 -166,0 -171,-22z" ></path></g></g></g></g></svg>